PathFileType   4   (X/Y/Z)
DataRate	CameraRate	NumFrames	NumMarkers	Units	OrigDataRate	OrigDataStartFrame	OrigNumFrames
120.0	120.0	5	37	mm	120.0	56	97
Frame#	Time	midhip	hip_r	hip_l	knee_r	knee_l	ankle_r	ankle_l	midasis	asis_r	asis_l	psis_r	psis_l	epicondLat_r	epicondLat_l	epicondMed_r	epicondMed_l	malleolusLat_r	malleolusLat_l	malleolusMedv_r	malleolusMedv_l	neck	subclavicle_r	subclavicle_l	sternalnotch	xyphoidprocess	thighwand_r	thighwand_l	upperleg1_r	upperleg1_l	upperleg2_r	upperleg2_l	shankwand_r	shankwand_l	lowerleg1_r	lowerleg1_l	toe_r	toe_l
 	 	X1	Y1	Z1	X2	Y2	Z2	X3	Y3	Z3	X4	Y4	Z4	X5	Y5	Z5	X6	Y6	Z6	X7	Y7	Z7	X8	Y8	Z8	X9	Y9	Z9	X10	Y10	Z10	X11	Y11	Z11	X12	Y12	Z12	X13	Y13	Z13	X14	Y14	Z14	X15	Y15	Z15	X16	Y16	Z16	X17	Y17	Z17	X18	Y18	Z18	X19	Y19	Z19	X20	Y20	Z20	X21	Y21	Z21	X22	Y22	Z22	X23	Y23	Z23	X24	Y24	Z24	X25	Y25	Z25	X26	Y26	Z26	X27	Y27	Z27	X28	Y28	Z28	X29	Y29	Z29	X30	Y30	Z30	X31	Y31	Z31	X32	Y32	Z32	X33	Y33	Z33	X34	Y34	Z34	X35	Y35	Z35	X36	Y36	Z36	X37	Y37	Z37

	56	0.55833	1963.542	800.265	-288.577	1948.189	768.064	-208.941	1946.348	787.877	-359.762	1875.055	403.182	-189.199	2105.775	428.844	-340.058	1574.317	177.098	-186.478	2082.357	67.999	-331.557	2036.584	852.344	-272.604	2034.162	836.970	-156.850	2039.006	867.718	-388.358	1841.084	907.354	-239.450	1834.607	907.205	-294.790	1876.512	406.024	-131.287	2121.850	432.932	-395.636	1889.929	395.452	-251.968	2108.407	444.075	-275.476	1565.944	188.685	-149.120	2078.034	67.343	-371.318	1587.646	170.897	-217.149	2092.286	76.086	-305.632	1915.073	1351.267	-275.860	2047.731	1296.168	-235.502	2038.319	1289.510	-341.211	2039.491	1289.734	-287.041	2082.390	1221.744	-290.693	2066.833	504.743	-203.970	2123.268	566.310	-485.865	2008.588	567.749	-153.949	2042.410	588.480	-441.054	1980.588	483.909	-152.270	2080.374	512.335	-419.831	1624.405	243.180	-79.587	2179.275	190.075	-305.959	1631.918	244.057	-120.012	2141.337	189.923	-322.411	1568.154	70.791	-168.929	2191.831	41.898	-350.880
	57	0.56667	1976.071	800.053	-288.847	1962.538	768.970	-210.632	1959.827	789.672	-361.320	1900.029	401.541	-188.644	2112.941	428.360	-340.828	1596.072	182.054	-188.490	2083.140	67.932	-331.447	2050.358	853.868	-274.269	2048.605	837.811	-158.662	2052.111	869.926	-389.877	1854.730	908.034	-238.697	1848.004	908.200	-294.024	1901.775	404.708	-130.757	2128.838	431.940	-396.492	1916.459	394.282	-254.858	2115.377	442.973	-276.814	1588.131	193.078	-150.869	2078.551	67.277	-371.178	1608.760	176.390	-219.708	2092.585	75.923	-305.543	1928.853	1352.878	-277.232	2061.200	1297.506	-235.647	2052.760	1290.908	-341.511	2053.411	1291.272	-287.483	2096.264	1223.058	-290.583	2088.843	508.293	-205.154	2131.895	565.193	-487.029	2028.827	570.181	-155.058	2051.908	589.805	-441.760	2003.533	484.672	-154.130	2088.165	511.777	-420.744	1647.753	244.897	-80.655	2182.214	188.025	-306.752	1654.841	245.974	-121.273	2143.701	188.421	-323.406	1588.775	75.159	-169.921	2191.999	41.636	-350.775
	58	0.57500	1988.960	800.625	-289.191	1976.603	770.182	-212.022	1973.014	791.494	-362.607	1925.246	400.556	-188.087	2119.295	427.904	-341.684	1619.191	186.254	-190.979	2083.966	67.856	-331.402	2063.867	855.554	-275.792	2062.789	839.016	-160.223	2064.946	872.091	-391.360	1868.171	908.966	-238.145	1861.293	909.412	-293.456	1927.265	404.023	-130.226	2134.881	430.965	-397.466	1942.071	393.833	-255.765	2121.549	441.385	-278.858	1611.439	196.815	-153.185	2078.857	67.224	-371.069	1630.818	182.314	-223.151	2092.641	75.809	-305.388	1942.909	1354.629	-278.621	2074.281	1299.124	-235.952	2067.123	1292.882	-341.934	2067.252	1292.958	-287.763	2109.932	1224.817	-290.703	2110.827	512.361	-206.242	2139.586	563.989	-488.295	2049.650	572.770	-155.843	2059.666	591.070	-442.326	2026.918	486.289	-155.145	2094.685	511.370	-421.976	1671.724	246.594	-82.229	2184.996	186.106	-308.199	1677.950	248.460	-123.269	2146.512	187.085	-324.892	1612.067	79.107	-171.227	2192.091	41.475	-350.725
	59	0.58333	2002.310	802.216	-289.600	1990.337	771.727	-213.096	1985.937	793.334	-363.617	1950.652	400.221	-187.565	2124.930	427.485	-342.584	1643.646	189.505	-193.816	2084.844	67.760	-331.418	2077.119	857.384	-277.140	2076.663	840.597	-161.495	2077.576	874.170	-392.785	1881.418	910.206	-237.809	1874.508	910.896	-293.103	1952.895	403.955	-129.729	2140.122	430.042	-398.501	1966.096	393.963	-255.539	2128.195	440.543	-280.960	1635.824	199.778	-155.958	2079.016	67.181	-370.987	1654.108	188.184	-227.044	2092.771	75.813	-305.229	1956.597	1356.449	-280.000	2087.465	1301.031	-236.054	2081.339	1295.039	-342.240	2081.018	1294.787	-287.890	2123.714	1226.889	-290.701	2132.742	516.919	-207.157	2146.531	562.787	-489.580	2070.720	575.160	-156.559	2066.957	591.745	-443.099	2049.820	488.223	-155.653	2100.875	511.696	-423.520	1696.212	248.297	-84.242	2187.630	184.287	-310.161	1701.840	251.840	-125.873	2149.133	186.065	-326.130	1637.789	82.463	-172.897	2192.147	41.384	-350.712
	60	0.59167	2015.797	804.475	-289.772	2003.725	773.608	-213.851	1998.637	795.184	-364.354	1976.218	400.489	-187.119	2129.925	427.100	-343.491	1669.366	191.720	-196.878	2085.744	67.641	-331.485	2090.140	859.337	-278.293	2090.212	842.544	-162.457	2090.067	876.131	-394.130	1894.489	911.788	-237.691	1887.671	912.669	-292.966	1978.603	404.455	-129.304	2144.684	429.187	-399.543	1990.599	393.998	-255.010	2134.461	440.256	-282.102	1661.236	201.902	-159.059	2079.082	67.142	-370.923	1679.933	191.262	-230.406	2092.952	75.854	-305.122	1969.931	1358.495	-281.441	2100.960	1303.099	-235.920	2095.212	1297.042	-342.167	2094.692	1296.753	-287.898	2137.427	1228.937	-290.417	2154.559	521.936	-207.809	2152.913	561.640	-490.806	2091.267	578.001	-157.256	2074.745	592.015	-443.836	2072.531	490.723	-155.921	2106.906	511.992	-424.604	1721.178	249.949	-86.608	2190.091	182.567	-312.426	1727.276	254.741	-128.651	2151.243	185.090	-327.736	1665.621	85.123	-174.940	2192.194	41.340	-350.715
